<?xml version="1.0" standalone="no"?>
<!DOCTYPE svg PUBLIC "-//W3C//DTD SVG 20010904//EN"
 "http://www.w3.org/TR/2001/REC-SVG-20010904/DTD/svg10.dtd">
<svg version="1.0" xmlns="http://www.w3.org/2000/svg"
 width="1280.000000pt" height="1254.000000pt" viewBox="0 0 1280.000000 1254.000000"
 preserveAspectRatio="xMidYMid meet">
<g transform="translate(0.000000,1254.000000) scale(0.100000,-0.100000)"
fill="#ffffff" stroke="none">
<path d="M5807 12510 c-144 -60 -291 -200 -503 -480 -73 -96 -265 -380 -310
-457 -10 -18 -25 -33 -34 -33 -8 0 -40 16 -70 37 -145 98 -500 281 -729 377
-444 187 -934 297 -1305 295 -121 0 -251 -11 -261 -21 -4 -4 3 -84 14 -180 62
-514 81 -756 81 -1038 -1 -359 -10 -447 -64 -620 -189 -605 -471 -1257 -1233
-2845 -775 -1614 -1214 -2689 -1353 -3309 -16 -70 -31 -130 -34 -133 -7 -7
140 -292 214 -417 181 -304 412 -516 742 -682 225 -113 392 -171 778 -269
l265 -67 75 11 c114 17 225 76 322 174 43 42 82 77 86 77 5 0 14 -52 20 -115
38 -366 211 -536 532 -523 169 7 215 41 370 273 125 187 414 641 554 871 191
312 329 488 580 740 277 277 499 450 844 656 236 141 744 380 765 359 19 -19
-54 -373 -118 -566 -101 -308 -306 -663 -669 -1160 -115 -158 -295 -389 -361
-465 -31 -36 -85 -103 -119 -149 -33 -46 -112 -153 -173 -237 -447 -608 -711
-1147 -862 -1764 -57 -235 -111 -615 -111 -786 l0 -64 4483 0 4483 0 17 193
c26 288 45 608 62 1042 17 451 19 715 5 958 -5 94 -14 282 -20 417 -101 2297
-648 4186 -1644 5670 -128 191 -399 555 -560 750 -771 939 -1556 1509 -2367
1719 -365 95 -744 124 -999 75 -46 -8 -86 -12 -90 -7 -5 4 -47 127 -95 273
-190 576 -260 720 -449 934 -95 109 -266 248 -446 367 -199 130 -229 149 -238
148 -4 0 -37 -13 -75 -29z m1262 -2599 c64 -11 161 -22 216 -26 488 -31 988
-257 1525 -689 411 -330 922 -874 1321 -1406 918 -1223 1451 -2724 1593 -4490
30 -372 38 -628 40 -1245 1 -624 1 -631 -22 -734 -60 -272 -186 -400 -382
-389 -164 9 -269 117 -334 340 -50 172 -57 259 -66 788 -11 633 -26 934 -70
1379 -174 1761 -708 3205 -1569 4246 -288 348 -729 778 -1066 1040 -506 393
-991 625 -1438 686 -85 12 -88 13 -131 59 -65 69 -90 124 -89 190 2 132 77
204 238 226 28 4 61 15 74 25 29 23 19 23 160 0z m-3079 -881 c307 -27 432
-133 399 -338 -24 -154 -133 -318 -358 -542 -340 -338 -628 -511 -941 -566
-301 -52 -430 58 -433 366 -1 191 53 339 189 520 281 372 591 548 1004 569 14
0 77 -4 140 -9z m-2685 -4260 c11 -18 45 -230 45 -280 0 -62 -43 -208 -83
-285 -41 -77 -154 -191 -232 -232 -85 -45 -194 -73 -306 -80 l-95 -6 -29 64
c-40 91 -46 209 -15 311 81 267 250 434 495 491 109 26 210 33 220 17z"/>
</g>
</svg>
